<svg id="Layer_1" data-name="Layer 1" xmlns="http://www.w3.org/2000/svg" width="24" height="24" viewBox="0 0 24 24">
  <path d="M12,5.34A6.59,6.59,0,0,0,6.61,15.68l-.67,2.44,2.5-.66A6.59,6.59,0,1,0,12,5.34Zm3.87,9.42a2,2,0,0,1-1.33.94,2.6,2.6,0,0,1-1.25-.07,11.8,11.8,0,0,1-1.13-.42,8.89,8.89,0,0,1-3.39-3A4,4,0,0,1,8,10.17,2.21,2.21,0,0,1,8.7,8.52a.71.71,0,0,1,.53-.25h.38c.12,0,.28,0,.44.34s.56,1.38.61,1.47a.36.36,0,0,1,0,.35,1.38,1.38,0,0,1-.2.33l-.3.35c-.09.1-.2.2-.08.4a5.63,5.63,0,0,0,1.1,1.37,5.42,5.42,0,0,0,1.59,1c.2.1.32.08.43,0a9.24,9.24,0,0,0,.63-.78c.13-.2.26-.16.44-.1s1.16.55,1.36.65.33.15.38.23A1.62,1.62,0,0,1,15.91,14.76ZM19,0H5A5,5,0,0,0,0,5V19a5,5,0,0,0,5,5H19a5,5,0,0,0,5-5V5A5,5,0,0,0,19,0ZM12,19.86a8,8,0,0,1-3.79-1L4,20l1.12-4.11a7.82,7.82,0,0,1-1-4,7.92,7.92,0,0,1,13.53-5.6A7.85,7.85,0,0,1,20,11.93,7.94,7.94,0,0,1,12,19.86Z"/>
</svg>
