<svg id="Layer_1" data-name="Layer 1" xmlns="http://www.w3.org/2000/svg" width="24" height="24" viewBox="0 0 24 24">
  <path d="M15.23,5.49c-.84,0-1.09,0-3.23,0s-2.39,0-3.23,0c-2.17.1-3.18,1.12-3.28,3.28,0,.84,0,1.09,0,3.23s0,2.39,0,3.23c.1,2.15,1.1,3.18,3.28,3.28.84,0,1.09,0,3.23,0s2.39,0,3.23,0c2.17-.1,3.18-1.13,3.28-3.28,0-.84,0-1.09,0-3.23s0-2.39,0-3.23C18.41,6.62,17.4,5.59,15.23,5.49ZM12,16.11A4.11,4.11,0,1,1,16.11,12,4.11,4.11,0,0,1,12,16.11Zm4.27-7.42a1,1,0,1,1,1-1A1,1,0,0,1,16.27,8.69ZM14.67,12A2.67,2.67,0,1,1,12,9.33,2.68,2.68,0,0,1,14.67,12ZM19,0H5A5,5,0,0,0,0,5V19a5,5,0,0,0,5,5H19a5,5,0,0,0,5-5V5A5,5,0,0,0,19,0ZM20,15.3c-.13,2.91-1.75,4.52-4.65,4.65-.86,0-1.13.05-3.3.05S9.56,20,8.7,20c-2.91-.13-4.52-1.75-4.65-4.65,0-.85,0-1.13,0-3.3s0-2.44,0-3.3C4.18,5.79,5.8,4.18,8.7,4.05,9.56,4,9.83,4,12,4s2.44,0,3.3,0C18.21,4.18,19.82,5.8,20,8.7c0,.86.05,1.13.05,3.3S20,14.44,20,15.3Z"/>
</svg>
