<svg id="Layer_1" data-name="Layer 1" xmlns="http://www.w3.org/2000/svg" width="24" height="24" viewBox="0 0 24 24">
  <defs>
    <style>
      .cls-1 {
        fill-rule: evenodd;
      }
    </style>
  </defs>
  <path class="cls-1" d="M19,24H5a5,5,0,0,1-5-5V5A5,5,0,0,1,5,0H19a5,5,0,0,1,5,5V19A5,5,0,0,1,19,24Zm1-12.51C20,7.91,16.41,5,12,5S4,7.91,4,11.49c0,3.21,2.85,5.9,6.69,6.41.26.05.62.17.71.39a1.59,1.59,0,0,1,0,.72l-.11.69c0,.2-.16.79.69.43a26,26,0,0,0,6.29-4.64h0A5.81,5.81,0,0,0,20,11.49ZM9,13.56H6.78l-.11,0h0l0-.11V9.92a.16.16,0,0,1,.16-.16h.56a.16.16,0,0,1,.16.16v2.77H9a.16.16,0,0,1,.16.15v.56A.16.16,0,0,1,9,13.56Zm8.32,0H15.09l-.1,0h0l0-.11V9.92l0-.11h0l.1-.05h2.25a.16.16,0,0,1,.15.16v.56a.15.15,0,0,1-.15.15H15.81v.59h1.53a.16.16,0,0,1,.15.16v.56a.16.16,0,0,1-.15.16H15.81v.59h1.53a.15.15,0,0,1,.15.15v.56A.16.16,0,0,1,17.34,13.56Zm-7,0H9.81a.16.16,0,0,1-.15-.16V9.92a.16.16,0,0,1,.15-.16h.57a.16.16,0,0,1,.15.16V13.4A.16.16,0,0,1,10.38,13.56Zm1.41,0h-.56a.16.16,0,0,1-.15-.16V9.92a.16.16,0,0,1,.15-.16h.69L13.52,12V9.92a.16.16,0,0,1,.16-.16h.56a.16.16,0,0,1,.15.16V13.4a.16.16,0,0,1-.15.16h-.65l0,0L12,11.33V13.4A.16.16,0,0,1,11.79,13.56Z"/>
</svg>
