<svg id="Layer_1" data-name="Layer 1" xmlns="http://www.w3.org/2000/svg" width="24" height="24" viewBox="0 0 24 24">
  <path d="M19,0H5A5,5,0,0,0,0,5V19a5,5,0,0,0,5,5H19a5,5,0,0,0,5-5V5A5,5,0,0,0,19,0ZM12,20a7.78,7.78,0,0,1-2.37-.36,9.19,9.19,0,0,0,1-2.09l.49-1.91a2.16,2.16,0,0,0,1.84.92c2.41,0,4.15-2.22,4.15-5A4.69,4.69,0,0,0,12.18,7C8.72,7,6.89,9.28,6.89,11.81a3.62,3.62,0,0,0,1.62,3.1c.16.07.24,0,.27-.11L9,13.89A.25.25,0,0,0,9,13.66a3.09,3.09,0,0,1-.6-1.82A3.46,3.46,0,0,1,12,8.37a3.16,3.16,0,0,1,3.34,3.25c0,2.17-1.1,3.66-2.52,3.66a1.15,1.15,0,0,1-1.18-1.44,16.59,16.59,0,0,0,.66-2.67,1,1,0,0,0-1-1.12c-.81,0-1.45.83-1.45,1.94a2.89,2.89,0,0,0,.24,1.19s-.8,3.35-.94,4a7.67,7.67,0,0,0,0,2.29A8,8,0,1,1,12,20Z"/>
</svg>
