<svg id="Layer_1" data-name="Layer 1" xmlns="http://www.w3.org/2000/svg" width="24" height="24" viewBox="0 0 24 24">
  <path d="M16.28,13.88c0,2-1.61,3.36-4,3.36-2.12,0-4.25-1-4.24-2.63a.92.92,0,0,1,.87-1c1.25,0,1.23,1.86,3.22,1.86,1.4,0,1.87-.76,1.87-1.29,0-1.93-6-.75-6-4.37,0-1.95,1.61-3.3,4.12-3.16s3.81,1.2,3.95,2.2A1,1,0,0,1,14.91,10c-1.08,0-1.19-1.46-3.06-1.46-.85,0-1.56.36-1.56,1.12C10.29,11.3,16.28,10.37,16.28,13.88ZM24,5V19a5,5,0,0,1-5,5H5a5,5,0,0,1-5-5V5A5,5,0,0,1,5,0H19A5,5,0,0,1,24,5Zm-4.67,8.31a7.46,7.46,0,0,0-8.71-8.65,4.36,4.36,0,0,0-5.95,6,7.46,7.46,0,0,0,8.72,8.67A4.36,4.36,0,0,0,19.33,13.31Z"/>
</svg>
