<svg id="Layer_1" data-name="Layer 1" xmlns="http://www.w3.org/2000/svg" width="24" height="24" viewBox="0 0 24 24">
  <path d="M19,0H5A5,5,0,0,0,0,5V19a5,5,0,0,0,5,5H19a5,5,0,0,0,5-5V5A5,5,0,0,0,19,0ZM17.86,17.11a4.63,4.63,0,0,0-.2.75c-.1.34-.41.3-.75.24a3.82,3.82,0,0,0-1.47,0c-.9.15-1.83,1.47-3.39,1.47s-2.56-1.32-3.49-1.47a5.55,5.55,0,0,0-1.83.09.35.35,0,0,1-.38-.28,5.63,5.63,0,0,0-.21-.75C5.5,17,4,16.76,4,16.11a.32.32,0,0,1,.28-.34c2.14-.36,3.5-2.77,3.28-3.29s-.84-.51-1.13-.62c-.74-.29-.84-.63-.8-.86a.79.79,0,0,1,.78-.53c.31,0,.87.42,1.3.18A9.23,9.23,0,0,1,7.89,7,4.38,4.38,0,0,1,12,4.47,4.42,4.42,0,0,1,16.11,7a9.22,9.22,0,0,1,.18,3.63c.41.22.92-.19,1.27-.19s.81.23.82.62-.27.57-.81.78c-.29.12-1,.25-1.13.62-.22.53,1.18,2.94,3.28,3.29a.32.32,0,0,1,.28.34C20,16.76,18.5,17,17.86,17.11Z"/>
</svg>
