<svg id="Layer_1" data-name="Layer 1" xmlns="http://www.w3.org/2000/svg" width="24" height="24" viewBox="0 0 24 24">
  <defs>
    <style>
      .cls-1 {
        fill-rule: evenodd;
      }
    </style>
  </defs>
  <path class="cls-1" d="M19,24H5a5,5,0,0,1-5-5V5A5,5,0,0,1,5,0H19a5,5,0,0,1,5,5V19A5,5,0,0,1,19,24Zm-.67-7A3.79,3.79,0,0,0,20,14c0-2.22-2.16-4-4.82-4s-4.82,1.8-4.82,4,2.16,4,4.82,4a5.73,5.73,0,0,0,1.57-.22l.15,0a.45.45,0,0,1,.25.07l1.06.61.09,0a.16.16,0,0,0,.16-.16l0-.12-.21-.81,0-.1A.3.3,0,0,1,18.33,17ZM9.78,5.53C6.59,5.53,4,7.69,4,10.35A4.53,4.53,0,0,0,6,14a.39.39,0,0,1,.16.32l0,.12-.26,1,0,.14a.19.19,0,0,0,.19.2l.11,0L7.42,15a.53.53,0,0,1,.3-.09l.17,0a6.9,6.9,0,0,0,1.89.27h.32A3.56,3.56,0,0,1,9.91,14c0-2.43,2.36-4.39,5.27-4.39h.31C15.06,7.29,12.67,5.53,9.78,5.53Zm3.79,7.81a.65.65,0,1,1,.65-.64A.64.64,0,0,1,13.57,13.34Zm3.22,0a.65.65,0,1,1,.64-.64A.65.65,0,0,1,16.79,13.34ZM7.85,9.58a.77.77,0,1,1,.78-.77A.78.78,0,0,1,7.85,9.58Zm3.86,0a.77.77,0,1,1,.77-.77A.77.77,0,0,1,11.71,9.58Z"/>
</svg>
